<?xml version="1.0" encoding="UTF-8" standalone="no"?>
<!DOCTYPE svg PUBLIC "-//W3C//DTD SVG 1.1//EN"
 "http://www.w3.org/Graphics/SVG/1.1/DTD/svg11.dtd">
<!-- Generated by graphviz version 2.49.1 (20210923.0004)
 -->
<!-- Title: G Pages: 1 -->
<svg width="175pt" height="234pt"
 viewBox="0.00 0.00 175.47 234.46" xmlns="http://www.w3.org/2000/svg" xmlns:xlink="http://www.w3.org/1999/xlink">
<g id="graph0" class="graph" transform="scale(1 1) rotate(0) translate(4 230.46)">
<title>G</title>
<polygon fill="white" stroke="transparent" points="-4,4 -4,-230.46 171.47,-230.46 171.47,4 -4,4"/>
<!-- d -->
<g id="node1" class="node">
<title>d</title>
<ellipse fill="none" stroke="black" cx="27" cy="-18" rx="27" ry="18"/>
<text text-anchor="middle" x="27" y="-14.3" font-family="Times,serif" font-size="14.00">d</text>
</g>
<!-- b -->
<g id="node2" class="node">
<title>b</title>
<ellipse fill="none" stroke="black" cx="74.15" cy="-77.91" rx="27" ry="18"/>
<text text-anchor="middle" x="74.15" y="-74.21" font-family="Times,serif" font-size="14.00">b</text>
</g>
<!-- d&#45;&#45;b -->
<g id="edge1" class="edge">
<title>d&#45;&#45;b</title>
<path fill="none" stroke="black" d="M39.64,-34.05C46.4,-42.65 54.71,-53.21 61.48,-61.81"/>
</g>
<!-- end -->
<g id="node3" class="node">
<title>end</title>
<ellipse fill="none" stroke="black" cx="135.38" cy="-72.92" rx="27" ry="18"/>
<text text-anchor="middle" x="135.38" y="-69.22" font-family="Times,serif" font-size="14.00">end</text>
</g>
<!-- end&#45;&#45;b -->
<g id="edge3" class="edge">
<title>end&#45;&#45;b</title>
<path fill="none" stroke="black" d="M108.34,-75.12C105.91,-75.32 103.45,-75.52 101.01,-75.72"/>
</g>
<!-- A -->
<g id="node4" class="node">
<title>A</title>
<ellipse fill="none" stroke="black" cx="79.22" cy="-142.62" rx="27" ry="18"/>
<text text-anchor="middle" x="79.22" y="-138.92" font-family="Times,serif" font-size="14.00">A</text>
</g>
<!-- end&#45;&#45;A -->
<g id="edge2" class="edge">
<title>end&#45;&#45;A</title>
<path fill="none" stroke="black" d="M122.35,-89.09C113.28,-100.35 101.23,-115.3 92.17,-126.55"/>
</g>
<!-- A&#45;&#45;b -->
<g id="edge7" class="edge">
<title>A&#45;&#45;b</title>
<path fill="none" stroke="black" d="M77.81,-124.6C77.12,-115.77 76.28,-105.16 75.59,-96.29"/>
</g>
<!-- c -->
<g id="node6" class="node">
<title>c</title>
<ellipse fill="none" stroke="black" cx="40.82" cy="-208.46" rx="27" ry="18"/>
<text text-anchor="middle" x="40.82" y="-204.76" font-family="Times,serif" font-size="14.00">c</text>
</g>
<!-- A&#45;&#45;c -->
<g id="edge6" class="edge">
<title>A&#45;&#45;c</title>
<path fill="none" stroke="black" d="M69.33,-159.58C63.64,-169.33 56.51,-181.55 50.81,-191.34"/>
</g>
<!-- start -->
<g id="node5" class="node">
<title>start</title>
<ellipse fill="none" stroke="black" cx="140.47" cy="-138.11" rx="27" ry="18"/>
<text text-anchor="middle" x="140.47" y="-134.41" font-family="Times,serif" font-size="14.00">start</text>
</g>
<!-- start&#45;&#45;b -->
<g id="edge5" class="edge">
<title>start&#45;&#45;b</title>
<path fill="none" stroke="black" d="M124.41,-123.53C114.14,-114.21 100.85,-102.14 90.52,-92.76"/>
</g>
<!-- start&#45;&#45;A -->
<g id="edge4" class="edge">
<title>start&#45;&#45;A</title>
<path fill="none" stroke="black" d="M113.42,-140.1C110.99,-140.28 108.52,-140.46 106.09,-140.64"/>
</g>
</g>
</svg>
